<!DOCTYPE svg PUBLIC "-//W3C//DTD SVG 20010904//EN" "http://www.w3.org/TR/2001/REC-SVG-20010904/DTD/svg10.dtd">
<svg version="1.0" xmlns="http://www.w3.org/2000/svg" width="1200px" height="630px" viewBox="0 0 12000 6300" preserveAspectRatio="xMidYMid meet">
<g id="layer101" fill="#1c3b6a" stroke="none">
<path d="M7031 3507 c-29 -75 -38 -237 -20 -364 13 -96 22 -113 58 -113 38 0 215 88 328 162 92 61 107 76 97 101 -15 39 -371 237 -425 237 -21 0 -32 -6 -38 -23z"/>
<path d="M3205 2816 c-119 -53 -118 -221 2 -272 97 -42 203 29 203 136 0 108 -108 179 -205 136z"/>
</g>
<g id="layer102" fill="#e40520" stroke="none">
<path d="M6220 3754 c-83 -18 -168 -52 -179 -72 -6 -11 2 -39 29 -92 54 -107 52 -106 146 -69 192 77 334 34 334 -102 0 -67 -29 -103 -142 -174 -181 -112 -223 -176 -216 -326 9 -199 129 -319 348 -350 73 -11 99 -10 173 4 93 17 194 57 203 80 7 19 -72 176 -92 184 -8 3 -47 -10 -87 -28 -58 -27 -85 -34 -137 -34 -77 0 -115 17 -148 65 -27 40 -26 89 3 134 10 14 59 52 109 82 169 105 217 156 237 256 22 109 -22 250 -104 332 -108 108 -292 150 -477 110z"/>
<path d="M7790 3761 c-55 -11 -96 -37 -119 -75 -39 -63 -37 -110 18 -372 28 -133 51 -244 51 -248 0 -3 -27 -6 -59 -6 -44 0 -60 -4 -65 -15 -6 -15 16 -123 29 -144 3 -6 33 -11 65 -11 70 0 71 0 95 -120 9 -47 21 -90 26 -96 10 -12 135 -34 189 -34 28 0 30 3 30 38 0 20 -9 73 -19 117 -11 44 -17 83 -15 87 3 5 55 8 115 8 89 0 111 3 115 15 4 8 -4 46 -17 83 l-24 67 -110 3 c-60 1 -113 6 -117 10 -7 7 -80 342 -93 428 -12 76 44 93 163 47 25 -9 46 -12 51 -7 13 14 42 144 35 156 -12 20 -90 47 -178 63 -95 16 -111 17 -166 6z"/>
<path d="M2946 3723 c-3 -10 21 -147 55 -303 33 -157 63 -297 66 -312 l6 -28 -66 0 c-36 0 -69 -5 -72 -11 -9 -13 14 -139 28 -156 7 -10 54 -13 172 -13 90 0 170 3 179 6 9 3 16 16 16 29 0 17 -67 341 -158 765 l-8 35 -106 3 c-95 2 -107 1 -112 -15z"/>
<path d="M3423 3724 c-6 -17 11 -104 112 -578 36 -171 67 -319 68 -329 1 -14 -5 -21 -23 -24 -13 -2 -28 -7 -32 -11 -10 -10 20 -161 34 -179 16 -20 418 -18 509 3 182 41 261 176 245 418 -24 373 -186 637 -431 701 -87 22 -473 22 -482 -1z m421 -195 c52 -14 122 -81 157 -151 77 -153 111 -428 63 -519 -19 -38 -56 -55 -136 -64 -83 -8 -75 -21 -122 210 -19 94 -51 245 -71 338 -19 92 -35 174 -35 182 0 18 84 21 144 4z"/>
<path d="M4353 3724 c-3 -9 36 -214 87 -457 51 -242 93 -447 94 -455 1 -8 -10 -16 -24 -19 -13 -2 -28 -7 -33 -12 -11 -11 18 -158 35 -178 8 -10 40 -13 136 -11 l125 3 33 100 c18 55 65 201 105 324 l73 223 68 -318 c38 -175 74 -321 81 -326 6 -4 51 -8 98 -8 64 0 90 4 99 14 9 12 2 60 -35 233 -25 120 -75 355 -111 523 -36 168 -69 322 -75 343 l-10 38 -87 -3 -87 -3 -97 -305 c-54 -168 -100 -320 -104 -337 -7 -36 -24 -45 -24 -14 0 23 -129 642 -136 653 -3 4 -50 8 -105 8 -82 0 -101 -3 -106 -16z"/>
<path d="M5326 3722 c-4 -10 37 -219 89 -465 52 -246 95 -449 95 -451 0 -2 -12 -7 -27 -11 -15 -3 -31 -11 -34 -17 -7 -11 15 -130 31 -165 l10 -23 329 0 c181 0 336 3 345 6 25 10 19 43 -22 119 l-37 70 -140 8 c-77 4 -154 5 -172 3 l-32 -5 -19 87 c-11 48 -23 104 -27 124 l-7 37 143 3 144 3 -2 55 c-1 30 -8 73 -15 95 l-13 40 -151 3 -151 3 -27 135 c-15 75 -30 142 -33 150 -4 12 26 14 180 14 145 0 186 3 190 13 7 17 -22 158 -35 175 -8 9 -82 12 -309 12 -279 0 -298 -1 -303 -18z"/>
<path d="M8405 3718 c-6 -29 -85 -681 -92 -764 -4 -41 -2 -64 6 -68 6 -4 54 -13 107 -19 74 -8 97 -8 103 1 4 7 13 106 19 220 7 114 15 235 18 269 l6 62 51 -107 c29 -59 90 -183 137 -277 l85 -170 82 3 c93 3 133 14 133 37 0 15 -381 711 -436 798 l-24 37 -95 0 c-90 0 -95 -1 -100 -22z"/>
</g>


</svg>